<?xml version="1.0" standalone="no"?><!DOCTYPE svg PUBLIC "-//W3C//DTD SVG 1.1//EN" "http://www.w3.org/Graphics/SVG/1.1/DTD/svg11.dtd"><svg t="1686406816973" class="icon" viewBox="0 0 1024 1024" version="1.1" xmlns="http://www.w3.org/2000/svg" p-id="2630" xmlns:xlink="http://www.w3.org/1999/xlink" width="32" height="32"><path d="M412.083 331.955c-10.951 0-19.838-8.881-19.838-19.838v-65.982c0-10.95 8.887-19.838 19.838-19.838 10.958 0 19.845 8.888 19.845 19.838v65.982c0.001 10.957-8.887 19.838-19.845 19.838zM516.974 331.955c-10.952 0-19.839-8.881-19.839-19.838v-65.982c0-10.95 8.887-19.838 19.839-19.838 10.958 0 19.845 8.888 19.845 19.838v65.982c-0.001 10.957-8.887 19.838-19.845 19.838zM621.099 331.955c-10.956 0-19.844-8.881-19.844-19.838v-65.982c0-10.95 8.888-19.838 19.844-19.838 10.951 0 19.839 8.888 19.839 19.838v65.982c0 10.957-8.888 19.838-19.839 19.838z" fill="#F1CA4E" p-id="2631"></path><path d="M725.913 521.903c0 22.771-18.462 41.233-41.235 41.233H332.773c-22.773 0-41.242-18.462-41.242-41.233v-147.48c0-22.773 18.468-41.242 41.242-41.242h351.904c22.773 0 41.235 18.469 41.235 41.242v147.48z" fill="#F08C3D" p-id="2632"></path><path d="M684.678 582.975H332.773c-33.683 0-61.079-27.396-61.079-61.071v-147.48c0-33.682 27.396-61.08 61.079-61.08h351.904c33.677 0 61.073 27.398 61.073 61.08v147.48c0.001 33.674-27.396 61.071-61.072 61.071z m-351.905-229.95c-11.802 0-21.397 9.596-21.397 21.397v147.48c0 11.793 9.595 21.396 21.397 21.396h351.904c11.796 0 21.397-9.603 21.397-21.396v-147.48c0-11.802-9.602-21.397-21.397-21.397H332.773z" fill="#353533" p-id="2633"></path><path d="M835.767 765.096c0 20.342-18.469 36.83-41.243 36.83H222.92c-22.779 0-41.235-16.488-41.235-36.83V517.094c0-20.335 18.456-36.828 41.235-36.828h571.604c22.774 0 41.243 16.493 41.243 36.828v248.002z" fill="#F1CA4E" p-id="2634"></path><path d="M794.523 821.763H222.92c-33.676 0-61.08-25.415-61.08-56.667V517.094c0-31.245 27.404-56.667 61.08-56.667h571.604c33.685 0 61.08 25.422 61.08 56.667v248.002c0 31.252-27.396 56.667-61.081 56.667zM222.92 500.11c-11.597 0-21.396 7.776-21.396 16.983v248.002c0 9.215 9.799 16.99 21.396 16.99h571.604c11.605 0 21.398-7.775 21.398-16.99V517.094c0-9.207-9.793-16.983-21.398-16.983H222.92z" fill="#353533" p-id="2635"></path><path d="M412.083 206.289c-18.046 0-30.176-18.666-30.176-46.451s12.129-46.458 30.176-46.458 30.182 18.673 30.182 46.458-12.135 46.451-30.182 46.451zM516.974 206.289c-18.048 0-30.184-18.666-30.184-46.451s12.136-46.458 30.184-46.458c18.046 0 30.168 18.673 30.168 46.458s-12.122 46.451-30.168 46.451z" fill="#F1CA4E" p-id="2636"></path><path d="M621.113 206.289c-18.061 0-30.189-18.666-30.189-46.451s12.129-46.458 30.189-46.458c18.032 0 30.161 18.673 30.161 46.458s-12.128 46.451-30.161 46.451z" fill="#F1CA4E" p-id="2637"></path><path d="M853.029 710.949c-36.781 0-53.37-33.641-66.69-60.664-11.469-23.277-19.831-38.531-31.102-38.531s-19.634 15.254-31.103 38.531c-13.326 27.023-29.909 60.664-66.697 60.664-36.78 0-53.363-33.641-66.684-60.664-11.469-23.277-19.832-38.531-31.095-38.531-11.265 0-19.627 15.254-31.095 38.531-13.321 27.023-29.898 60.664-66.686 60.664-36.775 0-53.363-33.641-66.678-60.664-11.475-23.277-19.837-38.531-31.102-38.531-11.256 0-19.613 15.254-31.087 38.524-13.32 27.03-29.896 60.671-66.677 60.671-36.789 0-53.364-33.641-66.685-60.664-11.468-23.277-19.831-38.531-31.088-38.531-10.958 0-19.838-8.887-19.838-19.845 0-10.95 8.88-19.839 19.838-19.839 36.781 0 53.357 33.636 66.677 60.673 11.475 23.276 19.831 38.53 31.095 38.53 11.257 0 19.612-15.254 31.088-38.53 13.32-27.037 29.896-60.673 66.676-60.673 36.789 0 53.371 33.636 66.691 60.673 11.475 23.276 19.831 38.53 31.088 38.53 11.264 0 19.626-15.254 31.094-38.53 13.321-27.037 29.898-60.673 66.686-60.673 36.787 0 53.37 33.636 66.69 60.673 11.469 23.276 19.832 38.53 31.088 38.53 11.264 0 19.626-15.254 31.108-38.53 13.32-27.037 29.903-60.673 66.691-60.673s53.37 33.636 66.69 60.673c11.476 23.276 19.838 38.53 31.102 38.53 10.958 0 19.838 8.881 19.838 19.831 0.005 10.965-8.875 19.845-19.833 19.845z" fill="#DF4F7E" p-id="2638"></path></svg>